# xmcd
#
# Track frame offsets: 
#        150
#        31965
#        47447
#        76171
#        103617
#
# Disc length: 2046 seconds
#
# Revision: 3
# Processed by: cddbd v1.5.2PL0 Copyright (c) Steve Scherf et al.
# Submitted via: ExactAudioCopy v0.99pb4
#
DISCID=2d07fc05
DTITLE=Grant Green - Goin' West
DYEAR=1962
DGENRE=Jazz
TTITLE0=On Top Of Old Smokey
TTITLE1=I Can't Stop Loving You
TTITLE2=Wagon Wheels
TTITLE3=Red River Valley
TTITLE4=Tumbling Tumbleweeds
EXTD=YEAR: 1969 ID3G: 8
EXTT0=
EXTT1=
EXTT2=
EXTT3=
EXTT4=
PLAYORDER=
